<svg width="130" height="130" viewBox="0 0 130 130" fill="none" xmlns="http://www.w3.org/2000/svg">
<g clip-path="url(#clip0_1_330)">
<path fill-rule="evenodd" clip-rule="evenodd" d="M45.2631 66.298H42.7821C42.3441 66.298 41.9241 66.124 41.6141 65.814C41.3051 65.504 41.1311 65.084 41.1311 64.647V58.825C41.1311 58.387 41.3051 57.967 41.6141 57.658C41.9241 57.348 42.3441 57.174 42.7821 57.174H45.2631V66.298ZM85.9831 57.174H88.1411C88.5791 57.174 88.9981 57.348 89.3081 57.658C89.6181 57.967 89.7921 58.387 89.7921 58.825V64.647C89.7921 65.084 89.6181 65.504 89.3081 65.814C88.9981 66.124 88.5791 66.298 88.1411 66.298H85.9831V57.174Z" fill="white"/>
<path fill-rule="evenodd" clip-rule="evenodd" d="M48.6791 86.015C47.9441 85.819 47.4031 85.149 47.4031 84.352V50.59C47.4031 48.055 48.4101 45.624 50.2021 43.832C51.9951 42.039 54.4261 41.032 56.9611 41.032H75.0681C80.3461 41.032 84.6251 45.311 84.6251 50.59V84.352C84.6251 85.25 83.9381 85.987 83.0611 86.065V89.268C83.0611 89.94 82.5171 90.484 81.8451 90.484H76.7941C76.1221 90.484 75.5781 89.94 75.5781 89.268V86.072H56.1631V89.268C56.1631 89.94 55.6181 90.484 54.9461 90.484H49.8951C49.2241 90.484 48.6791 89.94 48.6791 89.268V86.015ZM52.0661 76.726C50.7061 76.726 49.6021 77.83 49.6021 79.191C49.6021 80.551 50.7061 81.655 52.0661 81.655C53.4261 81.655 54.5311 80.551 54.5311 79.191C54.5311 77.83 53.4261 76.726 52.0661 76.726ZM79.2311 76.726C77.8711 76.726 76.7671 77.83 76.7671 79.191C76.7671 80.551 77.8711 81.655 79.2311 81.655C80.5921 81.655 81.6961 80.551 81.6961 79.191C81.6961 77.83 80.5921 76.726 79.2311 76.726ZM81.6091 55.136C81.6091 54.417 81.0251 53.834 80.3071 53.834H51.8241C51.1061 53.834 50.5221 54.417 50.5221 55.136V63.083C50.5221 63.802 51.1061 64.385 51.8241 64.385H80.3071C81.0251 64.385 81.6091 63.802 81.6091 63.083V55.136ZM74.2661 75.222H57.2081V76.596H74.2661V75.222ZM74.2661 72.955H57.2081V74.329H74.2661V72.955ZM74.2661 77.488H57.2081V78.862H74.2661V77.488ZM74.2661 70.689H57.2081V72.063H74.2661V70.689ZM57.2081 69.797H74.2661V69.265C74.2661 68.986 74.1551 68.718 73.9581 68.521C73.7611 68.323 73.4931 68.212 73.2141 68.212H58.2611C57.9821 68.212 57.7141 68.323 57.5171 68.521C57.3191 68.718 57.2081 68.986 57.2081 69.265V69.797ZM74.2661 79.755H57.2081V81.604H74.2661V79.755Z" fill="white"/>
<path fill-rule="evenodd" clip-rule="evenodd" d="M74.375 0.685002L77.438 11.171C83.366 12.546 89.027 14.89 94.191 18.111L103.772 12.861C108.828 16.627 113.31 21.108 117.075 26.164L111.825 35.745C115.046 40.909 117.391 46.57 118.765 52.499L129.252 55.562C130.165 61.799 130.165 68.137 129.252 74.375L118.765 77.438C117.391 83.366 115.046 89.027 111.825 94.191L117.075 103.772C113.31 108.828 108.828 113.31 103.772 117.075L94.191 111.825C89.027 115.046 83.366 117.391 77.438 118.765L74.375 129.252C68.137 130.165 61.799 130.165 55.562 129.252L52.499 118.765C46.57 117.391 40.909 115.046 35.745 111.825L26.164 117.075C21.108 113.31 16.627 108.828 12.861 103.772L18.111 94.191C14.89 89.027 12.546 83.366 11.171 77.438L0.684994 74.375C-0.228006 68.137 -0.228006 61.799 0.684994 55.562L11.171 52.499C12.546 46.57 14.89 40.909 18.111 35.745L12.861 26.164C16.627 21.108 21.108 16.627 26.164 12.861L35.745 18.111C40.909 14.89 46.57 12.546 52.499 11.171L55.562 0.685002C61.799 -0.227998 68.137 -0.227998 74.375 0.685002ZM64.968 18.124C90.822 18.124 111.812 39.114 111.812 64.968C111.812 90.822 90.822 111.812 64.968 111.812C39.114 111.812 18.124 90.822 18.124 64.968C18.124 39.114 39.114 18.124 64.968 18.124Z" fill="white"/>
<path fill-rule="evenodd" clip-rule="evenodd" d="M64.9679 24.202C87.4669 24.202 105.734 42.469 105.734 64.968C105.734 87.468 87.4669 105.734 64.9679 105.734C42.4689 105.734 24.2019 87.468 24.2019 64.968C24.2019 42.469 42.4689 24.202 64.9679 24.202ZM64.9679 29.889C84.3289 29.889 100.048 45.607 100.048 64.968C100.048 84.329 84.3289 100.048 64.9679 100.048C45.6069 100.048 29.8889 84.329 29.8889 64.968C29.8889 45.607 45.6069 29.889 64.9679 29.889Z" fill="white"/>
</g>
<defs>
<clipPath id="clip0_1_330">
<rect width="130" height="130" fill="white"/>
</clipPath>
</defs>
</svg>
